<svg width="114" height="102" viewBox="0 0 114 102" fill="none" xmlns="http://www.w3.org/2000/svg">
<g id="Vector">
<path d="M50.8845 3.53443L39.3736 25.2677C37.8649 28.1161 35.0758 30.0627 31.8818 30.4963L5.8386 34.0319C0.255802 34.7859 -1.98158 41.1949 2.06701 44.8657L20.4652 61.5604C23.0296 63.8873 24.2076 67.3752 23.5793 70.7805L19.2629 94.1736C18.304 99.3921 24.2064 103.301 29.15 100.86L52.6037 89.3806C55.3774 88.023 58.6226 88.023 61.3963 89.3806L84.8501 100.86C89.7936 103.281 95.696 99.3921 94.7371 94.1736L90.4207 70.7805C89.7924 67.3752 90.9704 63.8873 93.5348 61.5603L111.933 44.8657C115.982 41.1949 113.744 34.7859 108.161 34.0319L82.1182 30.4963C78.9242 30.0627 76.1351 28.1161 74.6264 25.2677L63.1155 3.53443C60.6224 -1.14833 53.3989 -1.20786 50.8845 3.53443Z" fill="white"/>
<path d="M5.90552 34.5274L5.90586 34.5273L31.9491 30.9917C35.3027 30.5364 38.2313 28.4925 39.8154 25.5017L51.3262 3.76864C51.3263 3.76858 51.3263 3.76852 51.3263 3.76845C53.6504 -0.614463 60.3661 -0.564502 62.6738 3.7687C62.6739 3.76894 62.674 3.76917 62.6742 3.7694L74.1846 25.5017C75.7687 28.4925 78.6973 30.5364 82.0509 30.9917L108.094 34.5273L108.094 34.5274C113.31 35.2318 115.291 41.1461 111.597 44.4953L111.597 44.4954L93.1988 61.1901C90.5062 63.6333 89.2692 67.2957 89.929 70.8712L94.2454 94.2639C94.6835 96.6483 93.5626 98.738 91.7288 99.9663C89.8915 101.197 87.3692 101.537 85.0699 100.411L85.0699 100.411L61.6161 88.9315C58.7038 87.5061 55.2962 87.5061 52.3839 88.9315L28.9301 100.411L28.9286 100.412C26.63 101.547 24.1087 101.207 22.2716 99.974C20.4377 98.7433 19.3165 96.6486 19.7546 94.2639L24.071 70.8712C24.7307 67.2957 23.4938 63.6333 20.8012 61.1901L2.40301 44.4954L2.40286 44.4953C-1.29103 41.1461 0.690067 35.2318 5.90552 34.5274Z" stroke="black" stroke-opacity="0.03"/>
</g>
</svg>
