<svg width="146" height="77" viewBox="0 0 146 77" fill="none" xmlns="http://www.w3.org/2000/svg">
<g id="&#240;&#159;&#166;&#134; icon &#34;Language&#34;">
<path id="Vector" d="M34.6978 34.0412C33.8994 31.1597 32.9184 26.1351 32.9184 26.1351H32.8044C32.8044 26.1351 31.8234 31.1597 31.025 34.0412L28.4928 42.9713H37.1844L34.6978 34.0412ZM140.525 0.654541H76.65V76.858H140.525C143.559 76.858 146 74.3099 146 71.1427V6.3698C146 3.20259 143.559 0.654541 140.525 0.654541ZM135.05 29.2308C135.05 30.8025 133.818 32.0885 132.312 32.0885H129.712C128.138 37.7085 124.762 43.3761 119.971 48.7342C121.887 50.2582 123.872 51.7109 125.925 53.0206C127.18 53.8303 127.59 55.521 126.86 56.8784L125.058 60.1885C124.283 61.5935 122.572 62.0459 121.248 61.2125C118.374 59.355 115.659 57.3785 113.173 55.2829C110.686 57.3547 107.994 59.355 105.097 61.2125C103.774 62.0459 102.063 61.5935 101.287 60.1885L99.4853 56.8784C98.7553 55.5448 99.1659 53.8303 100.443 53.0206C102.565 51.6632 104.55 50.2344 106.397 48.7342C104.595 46.7338 102.998 44.6858 101.607 42.6141C100.694 41.2567 101.105 39.3754 102.451 38.5419L103.934 37.6132L105.599 36.5892C106.831 35.8272 108.428 36.1844 109.249 37.3989C110.39 39.0658 111.713 40.7328 113.218 42.3759C116.298 38.9944 118.648 35.4938 120.062 32.0885H93.9875C92.4819 32.0885 91.25 30.8025 91.25 29.2308V25.4207C91.25 23.849 92.4819 22.563 93.9875 22.563H108.588V18.7529C108.588 17.1812 109.819 15.8952 111.325 15.8952H114.975C116.481 15.8952 117.713 17.1812 117.713 18.7529V22.563H132.312C133.818 22.563 135.05 23.849 135.05 25.4207V29.2308ZM0 6.3698V71.1427C0 74.3099 2.44094 76.858 5.475 76.858H69.35V0.654541H5.475C2.44094 0.654541 0 3.20259 0 6.3698ZM13.4366 57.8309L26.5537 17.5622C26.9416 16.3953 27.9681 15.6333 29.1544 15.6333H36.5684C37.7319 15.6333 38.7812 16.4191 39.1691 17.5622L52.2862 57.8309C52.8794 59.6884 51.5791 61.6173 49.6856 61.6173H44.4616C43.8712 61.6169 43.2968 61.4172 42.824 61.0482C42.3512 60.6791 42.0054 60.1604 41.8381 59.5693L39.6937 51.9728H25.9606L23.8847 59.5455C23.5425 60.76 22.4703 61.6173 21.2612 61.6173H16.0372C14.1666 61.6173 12.8434 59.6884 13.4366 57.8309Z" fill="white"/>
</g>
</svg>
