<svg width="110" height="78" viewBox="0 0 110 78" fill="none" xmlns="http://www.w3.org/2000/svg">
<g id="&#240;&#159;&#166;&#134; icon &#34;Graduation Cap&#34;">
<path id="Vector" d="M106.964 18.7215L59.0212 1.49669C56.4087 0.55807 53.59 0.55807 50.9792 1.49669L3.03447 18.7215C-1.01149 20.1746 -1.01149 26.4314 3.03447 27.8846L11.3928 30.8874C9.55887 33.5384 8.43136 36.7723 8.31964 40.3138C6.66448 41.4232 5.49916 43.4251 5.49916 45.8148C5.49916 47.9815 6.47542 49.8045 7.88136 50.9702L3.49337 74.0599C3.11181 76.0678 4.41806 77.9731 6.17635 77.9731H15.8203C17.5803 77.9731 18.8866 76.0678 18.505 74.0599L14.117 50.9702C15.523 49.8045 16.4992 47.9815 16.4992 45.8148C16.4992 43.4894 15.3872 41.5438 13.8076 40.4143C13.9383 37.3954 15.2583 34.7263 17.3637 33.0339L50.9775 45.1114C52.5347 45.6701 55.5219 46.3676 59.0195 45.1114L106.964 27.8866C111.012 26.4314 111.012 20.1766 106.964 18.7215ZM60.6352 51.2596C55.7315 53.0203 51.5532 52.0475 49.3618 51.2596L24.4364 42.3056L21.9992 65.1098C21.9992 72.2148 36.7737 77.9731 54.9994 77.9731C73.2251 77.9731 87.9995 72.2148 87.9995 65.1098L85.5623 42.3036L60.6352 51.2596Z" fill="white"/>
</g>
</svg>
