<svg width="128" height="94" viewBox="0 0 128 94" fill="none" xmlns="http://www.w3.org/2000/svg">
<g id="&#240;&#159;&#166;&#134; icon &#34;Chalkboard Teacher&#34;">
<path id="Vector" d="M41.2931 64.625C40.8186 64.625 40.3441 64.6893 39.8915 64.8251C37.3186 65.598 34.6128 66.0938 31.764 66.0938C28.9152 66.0938 26.2093 65.598 23.6345 64.8251C23.1818 64.6893 22.7094 64.625 22.2349 64.625C9.91455 64.625 -0.0651918 73.8928 0.000320709 85.3013C0.0281139 90.1225 4.31422 94 9.52942 94H53.9985C59.2137 94 63.4998 90.1225 63.5276 85.3013C63.5932 73.8928 53.6134 64.625 41.2931 64.625ZM31.764 58.75C42.2897 58.75 50.8222 50.8591 50.8222 41.125C50.8222 31.3909 42.2897 23.5 31.764 23.5C21.2383 23.5 12.7058 31.3909 12.7058 41.125C12.7058 50.8591 21.2383 58.75 31.764 58.75ZM117.526 0H41.2931C36.0382 0 31.764 4.08496 31.764 9.10441V17.625C36.4134 17.625 40.7174 18.8698 44.4694 20.893V11.75H114.349V64.625H101.644V52.875H76.2331V64.625H61.0977C64.8895 67.6892 67.6728 71.7356 68.9771 76.375H117.526C122.781 76.375 127.055 72.29 127.055 67.2706V9.10441C127.055 4.08496 122.781 0 117.526 0Z" fill="#F6F6F6"/>
</g>
</svg>
